<svg width="26" height="31" viewBox="0 0 26 31" fill="none" xmlns="http://www.w3.org/2000/svg">
<path d="M20.9425 16.385C20.9074 12.4925 24.1305 10.5988 24.2778 10.5107C22.4525 7.8501 19.6233 7.48658 18.6291 7.45759C16.2529 7.2076 13.948 8.87906 12.7376 8.87906C11.503 8.87906 9.63896 7.48175 7.63001 7.52281C5.04484 7.56266 2.62637 9.05901 1.29995 11.3826C-1.43744 16.1205 0.604129 23.0829 3.22676 26.9125C4.53867 28.7893 6.07166 30.8823 8.07819 30.8086C10.0412 30.7289 10.7745 29.5586 13.1435 29.5586C15.4906 29.5586 16.1792 30.8086 18.2256 30.7615C20.3324 30.7289 21.6588 28.8775 22.9248 26.985C24.4409 24.8365 25.0498 22.7182 25.0739 22.6095C25.0256 22.5926 20.9835 21.0491 20.9425 16.385ZM17.0768 4.93831C18.1326 3.61829 18.855 1.82243 18.6545 0C17.1263 0.0676316 15.2152 1.05674 14.1147 2.34778C13.141 3.48544 12.2713 5.35014 12.4959 7.10373C14.2126 7.23175 15.9751 6.23781 17.0768 4.93831Z" fill="white"/>
</svg>
