<svg width="30" height="30" viewBox="0 0 30 30" fill="none" xmlns="http://www.w3.org/2000/svg">
<path d="M22 0C26.4183 0 30 3.58172 30 8V22C30 26.4183 26.4183 30 22 30H8C3.58172 30 2.25497e-07 26.4183 0 22V2C0 0.895431 0.895431 5.63724e-08 2 0H22ZM14.9551 5C11.1589 5.00002 8 8.07599 8 11.7891C8.0001 15.502 10.6603 18.2178 14.207 18.2178C14.3733 18.2178 14.5398 18.2172 14.7061 18.1895L10.6045 24.6738H15.2881L20.3857 16.4717C21.4386 14.7815 21.9101 13.0637 21.9102 11.7891C21.9102 8.07598 18.779 5 14.9551 5ZM14.9551 8.90723C16.5899 8.90723 17.8925 10.1816 17.8926 11.8164C17.8926 13.4513 16.6173 14.7539 14.9824 14.7539C13.2923 14.7537 11.9902 13.4511 11.9902 11.8164C11.9903 10.1816 13.2926 8.90724 14.9551 8.90723Z" fill="#505561"/>
</svg>
